/* XPM */
static char * dflowers_mini_xpm[] = {
"16 16 93 2",
"  	c None",
". 	c #5B5B5B",
"+ 	c #DADADA",
"@ 	c #B8B8B8",
"# 	c #848484",
"$ 	c #8F8F8F",
"% 	c #909090",
"& 	c #8A8A8A",
"* 	c #646466",
"= 	c #1C1B19",
"- 	c #0C0C0A",
"; 	c #B1B1B1",
"> 	c #1C1D1D",
", 	c #1C1B1B",
"' 	c #1E1F1D",
") 	c #141414",
"! 	c #1C1D1B",
"~ 	c #2B2A2A",
"{ 	c #0E0E0F",
"] 	c #060605",
"^ 	c #080806",
"/ 	c #4E4E4E",
"( 	c #0B0B0B",
"_ 	c #1E1D19",
": 	c #272623",
"< 	c #282623",
"[ 	c #211D1B",
"} 	c #3B362B",
"| 	c #FFFFFF",
"1 	c #252119",
"2 	c #3D352A",
"3 	c #C0BDB8",
"4 	c #1B1915",
"5 	c #222222",
"6 	c #24221A",
"7 	c #4E4533",
"8 	c #474136",
"9 	c #464030",
"0 	c #3A3226",
"a 	c #B8B8B7",
"b 	c #151311",
"c 	c #171717",
"d 	c #030303",
"e 	c #4B4333",
"f 	c #433B2F",
"g 	c #2A2A2A",
"h 	c #050505",
"i 	c #474035",
"j 	c #393939",
"k 	c #070707",
"l 	c #4E4534",
"m 	c #413B2D",
"n 	c #494030",
"o 	c #514836",
"p 	c #423B2D",
"q 	c #D3D1CF",
"r 	c #191714",
"s 	c #353535",
"t 	c #070606",
"u 	c #524F3C",
"v 	c #2B2B2B",
"w 	c #4A4133",
"x 	c #4D4534",
"y 	c #3F382C",
"z 	c #645F57",
"A 	c #453B2D",
"B 	c #504735",
"C 	c #554C3E",
"D 	c #A49D95",
"E 	c #1F1C18",
"F 	c #3A3227",
"G 	c #3F372C",
"H 	c #5F5950",
"I 	c #383228",
"J 	c #322D22",
"K 	c #9C9A93",
"L 	c #252422",
"M 	c #67635D",
"N 	c #5B5A55",
"O 	c #6F6862",
"P 	c #62605D",
"Q 	c #817F75",
"R 	c #737269",
"S 	c #939593",
"T 	c #040403",
"U 	c #1C1C16",
"V 	c #161511",
"W 	c #151412",
"X 	c #090807",
"Y 	c #151514",
"Z 	c #1E1C1A",
"` 	c #0C0B09",
" .	c #121110",
". . . . . . . . . . . . . . . . ",
". + @ # $ % & % # $ % # * = - . ",
". ; > , ' ) ! ) ~ ' ) ~ { ] ^ . ",
". / ( _ : < [ } | | 1 2 1 3 4 . ",
". 5 ( 6 | 7 8 | 7 7 | 9 0 a b . ",
". c d | e | | | f 7 e | 1 3 4 . ",
". g h | e e e | i | | e e a b . ",
". j k 7 | l e 7 | m n | e 3 4 . ",
". 5 h e o | p | e e e | 7 q r . ",
". s t 7 7 7 | u | e e | 7 a b . ",
". v h } 7 | w x y | | e z 3 4 . ",
". g h A B | B 9 0 | 7 C e D E . ",
". j k F G H | | | F G I J K L . ",
". v h M N O M P Q O M P R S T . ",
". U V W X V W Y U V W Y Z `  .. ",
". . . . . . . . . . . . . . . . "};
